<?xml version="1.0" encoding="UTF-8" standalone="no"?>
<svg xmlns:rdf="http://www.w3.org/1999/02/22-rdf-syntax-ns#"
     xmlns="http://www.w3.org/2000/svg"
     height="227.685"
     width="85.6874"
     version="1.1"
     xmlns:cc="http://creativecommons.org/ns#"
     xmlns:dc="http://purl.org/dc/elements/1.1/">
    <g transform="translate(-477.151 -180)">
        <path d="m549.698 270.4c-5.87125-7.14787-14.615-11.9516-23.7262-13.355-0.15375-31.6428-0.53625-63.309-1.61725-94.934-0.38662-11.3125-0.88325-22.64-1.84663-33.92v128.486c-1.67387-0.10738-3.33987-0.10738-5.01362 0v-128.48c-2.49562 29.2175-2.59425 58.6875-3.04113 87.99-0.2075 13.6188-0.35687 27.2381-0.42274 40.8578-15.9786 2.4605-29.0996 15.126-32.1798 30.9781-3.00487 15.4706 3.86238 31.5649 17.0889 40.124 4.11375 2.66063 8.732 4.53563 13.5395 5.478v11.978c1.47125 1.10989 3.20713 1.90677 5.01525 2.27298v-13.606c1.67375 0.1075 3.33975 0.1075 5.01362 0v13.606c1.80813-0.36621 3.54388-1.16309 5.01513-2.27298v-11.978c13.5588-2.65825 24.9588-12.7188 29.3412-25.8095 4.26625-12.7442 1.505-27.1519-7.16625-37.4156zm-29.698 62.6836c-0.84275 0-1.67725-0.0376-2.50575-0.0917v-30.5968l-5.01525 5.01563v24.9195c-4.82412-0.978-9.46425-2.93412-13.5395-5.69288l-0.46388-0.33062c-12.4082-8.66062-18.4878-24.3442-15.1704-39.1079 3.32863-14.811 15.7265-26.4585 30.7188-28.8579-0.0176 3.976-0.0303 7.9975-0.0351 12.059h-1.50987v27.9185l-13.5395 13.54v6.89462l18.5548-18.5537v-42.2431c1.67375-0.11037 3.33975-0.11037 5.01362 0v75.0356c-0.82912 0.0541-1.66412 0.0917-2.50787 0.0917zm37.6118-37.6099c0 17.6324-12.7862 33.3335-30.0888 36.8565v-27.9941l13.54 13.5405v-7.08988l-13.5338-13.5336 6.8375-6.83549v-7.08988l-6.84375 6.84225v-19.77h-1.50875c-0.006-4.0615-0.0175-8.083-0.0362-12.059 8.30375 1.329 16.0062 5.48775 21.7 11.6742l0.34875 0.38475c6.14875 6.836 9.585 15.8892 9.585 25.0738"
              fill="#231f20" />
    </g>
</svg>